<svg xmlns="http://www.w3.org/2000/svg" viewBox="0 0 1920 1080" preserveAspectRatio="xMidYMid slice" role="img" aria-label="Asteryn home hero">
  <defs>
    <linearGradient id="g" x1="0" x2="1" y1="0" y2="1">
      <stop offset="0" stop-color="#10141d"/>
      <stop offset=".42" stop-color="#1d3557"/>
      <stop offset=".72" stop-color="#2a9d8f"/>
      <stop offset="1" stop-color="#f4a261"/>
    </linearGradient>
    <linearGradient id="h" x1="0" x2="0" y1="0" y2="1">
      <stop offset="0" stop-color="#ffffff" stop-opacity=".9"/>
      <stop offset="1" stop-color="#ffffff" stop-opacity=".05"/>
    </linearGradient>
  </defs>
  <rect width="1920" height="1080" fill="url(#g)"/>
  <path d="M0 710c232-164 413-198 544-103 118 86 206 87 325 4 165-115 343-95 535 60 154 124 326 133 516 27v382H0z" fill="#0f1720" opacity=".72"/>
  <path d="M0 814c251-122 460-132 628-31 123 74 250 69 381-17 169-110 339-84 509 78 112 107 246 128 402 61v175H0z" fill="#f7fbfa" opacity=".18"/>
  <path d="M116 210h498M116 272h368M116 334h430" stroke="url(#h)" stroke-width="10" stroke-linecap="round" opacity=".22"/>
  <path d="M1320 222l35 96 102-4-80 62 35 95-86-55-81 62 24-100-84-56 102-5z" fill="#fff8d6" opacity=".92"/>
  <circle cx="1558" cy="160" r="4" fill="#fff8d6"/><circle cx="1665" cy="272" r="3" fill="#fff8d6"/><circle cx="1410" cy="386" r="3" fill="#fff8d6"/><circle cx="1252" cy="150" r="2" fill="#fff8d6"/><circle cx="1733" cy="420" r="4" fill="#fff8d6"/>
</svg>
